<mxfile host="app.diagrams.net" agent="Mozilla/5.0 (Windows NT 10.0; Win64; x64) AppleWebKit/537.36 (KHTML, like Gecko) Chrome/131.0.0.0 Safari/537.36" version="25.0.3">
  <diagram name="Pagina-1" id="R3rcgFLR2BbLezrfKNTb">
    <mxGraphModel dx="2333" dy="1451" grid="1" gridSize="10" guides="1" tooltips="1" connect="1" arrows="1" fold="1" page="1" pageScale="1" pageWidth="1654" pageHeight="1169" math="0" shadow="0">
      <root>
        <mxCell id="0" />
        <mxCell id="1" parent="0" />
        <mxCell id="BLvCOn3kqF9lKBN_COgF-4" value="&lt;font style=&quot;font-size: 40px;&quot;&gt;&lt;b&gt;DATABASE&lt;/b&gt;&lt;/font&gt;&lt;div&gt;&lt;span style=&quot;font-size: 30px;&quot;&gt;SQL&lt;/span&gt;&lt;/div&gt;" style="rounded=1;whiteSpace=wrap;html=1;" vertex="1" parent="1">
          <mxGeometry x="227" y="70" width="400" height="210" as="geometry" />
        </mxCell>
        <mxCell id="BLvCOn3kqF9lKBN_COgF-5" value="" style="rounded=0;orthogonalLoop=1;jettySize=auto;html=1;endArrow=halfCircle;endFill=0;endSize=6;strokeWidth=5;sketch=0;" edge="1" parent="1" source="BLvCOn3kqF9lKBN_COgF-2">
          <mxGeometry relative="1" as="geometry">
            <mxPoint x="1050" y="715" as="sourcePoint" />
            <mxPoint x="1060" y="770" as="targetPoint" />
          </mxGeometry>
        </mxCell>
        <mxCell id="BLvCOn3kqF9lKBN_COgF-6" value="" style="rounded=0;orthogonalLoop=1;jettySize=auto;html=1;endArrow=oval;endFill=0;sketch=0;sourcePerimeterSpacing=0;targetPerimeterSpacing=0;endSize=15;strokeWidth=5;" edge="1" parent="1" source="BLvCOn3kqF9lKBN_COgF-3">
          <mxGeometry relative="1" as="geometry">
            <mxPoint x="1240" y="950" as="sourcePoint" />
            <mxPoint x="1050" y="780" as="targetPoint" />
          </mxGeometry>
        </mxCell>
        <mxCell id="BLvCOn3kqF9lKBN_COgF-7" value="" style="ellipse;whiteSpace=wrap;html=1;align=center;aspect=fixed;fillColor=none;strokeColor=none;resizable=0;perimeter=centerPerimeter;rotatable=0;allowArrows=0;points=[];outlineConnect=1;" vertex="1" parent="1">
          <mxGeometry x="1025" y="710" width="10" height="10" as="geometry" />
        </mxCell>
        <mxCell id="BLvCOn3kqF9lKBN_COgF-8" value="&lt;font style=&quot;font-size: 20px;&quot;&gt;UserInteractionsIF&lt;/font&gt;&lt;div&gt;&lt;font style=&quot;font-size: 20px;&quot;&gt;(Eventi generati dall&#39;interazione dell&#39;utente dell&#39;app)&lt;/font&gt;&lt;/div&gt;" style="text;html=1;align=center;verticalAlign=middle;whiteSpace=wrap;rounded=0;" vertex="1" parent="1">
          <mxGeometry x="1077" y="760" width="300" height="100" as="geometry" />
        </mxCell>
        <mxCell id="BLvCOn3kqF9lKBN_COgF-2" value="&lt;font style=&quot;font-size: 40px;&quot;&gt;&lt;b&gt;CONTROLLER&lt;/b&gt;&lt;/font&gt;&lt;div&gt;&lt;font style=&quot;font-size: 30px;&quot;&gt;Logica client, Java&lt;/font&gt;&lt;/div&gt;" style="rounded=1;whiteSpace=wrap;html=1;" vertex="1" parent="1">
          <mxGeometry x="1027" y="450" width="400" height="210" as="geometry" />
        </mxCell>
        <mxCell id="BLvCOn3kqF9lKBN_COgF-9" value="" style="rounded=0;orthogonalLoop=1;jettySize=auto;html=1;endArrow=halfCircle;endFill=0;endSize=6;strokeWidth=5;sketch=0;" edge="1" parent="1" source="BLvCOn3kqF9lKBN_COgF-3">
          <mxGeometry relative="1" as="geometry">
            <mxPoint x="800" y="575" as="sourcePoint" />
            <mxPoint x="590" y="790" as="targetPoint" />
          </mxGeometry>
        </mxCell>
        <mxCell id="BLvCOn3kqF9lKBN_COgF-10" value="" style="rounded=0;orthogonalLoop=1;jettySize=auto;html=1;endArrow=oval;endFill=0;sketch=0;sourcePerimeterSpacing=0;targetPerimeterSpacing=0;endSize=15;exitX=0.5;exitY=1;exitDx=0;exitDy=0;strokeWidth=5;" edge="1" parent="1" source="BLvCOn3kqF9lKBN_COgF-1">
          <mxGeometry relative="1" as="geometry">
            <mxPoint x="600" y="900" as="sourcePoint" />
            <mxPoint x="580" y="780" as="targetPoint" />
          </mxGeometry>
        </mxCell>
        <mxCell id="BLvCOn3kqF9lKBN_COgF-3" value="&lt;font style=&quot;font-size: 40px;&quot;&gt;&lt;b&gt;VIEW&lt;/b&gt;&lt;/font&gt;&lt;div&gt;&lt;span style=&quot;font-size: 30px;&quot;&gt;Applicazione client, Flutter&lt;/span&gt;&lt;/div&gt;" style="rounded=1;whiteSpace=wrap;html=1;" vertex="1" parent="1">
          <mxGeometry x="627" y="879" width="400" height="210" as="geometry" />
        </mxCell>
        <mxCell id="BLvCOn3kqF9lKBN_COgF-11" value="&lt;font style=&quot;font-size: 20px;&quot;&gt;ViewUpdateIF&lt;/font&gt;&lt;div&gt;&lt;font style=&quot;font-size: 20px;&quot;&gt;(Metodi per la modifica dell&#39;interfaccia utente in risposta agli input)&lt;/font&gt;&lt;/div&gt;" style="text;html=1;align=center;verticalAlign=middle;whiteSpace=wrap;rounded=0;" vertex="1" parent="1">
          <mxGeometry x="227" y="760" width="347" height="100" as="geometry" />
        </mxCell>
        <mxCell id="BLvCOn3kqF9lKBN_COgF-1" value="&lt;font style=&quot;font-size: 40px;&quot;&gt;&lt;b&gt;MODEL&lt;/b&gt;&lt;/font&gt;&lt;div&gt;&lt;font style=&quot;font-size: 30px;&quot;&gt;Springboot, server Java&lt;/font&gt;&lt;/div&gt;" style="rounded=1;whiteSpace=wrap;html=1;" vertex="1" parent="1">
          <mxGeometry x="227" y="450" width="400" height="210" as="geometry" />
        </mxCell>
        <mxCell id="BLvCOn3kqF9lKBN_COgF-12" value="" style="rounded=0;orthogonalLoop=1;jettySize=auto;html=1;endArrow=halfCircle;endFill=0;endSize=6;strokeWidth=5;sketch=0;exitX=0.003;exitY=0.523;exitDx=0;exitDy=0;exitPerimeter=0;" edge="1" parent="1" source="BLvCOn3kqF9lKBN_COgF-2">
          <mxGeometry relative="1" as="geometry">
            <mxPoint x="1020" y="749" as="sourcePoint" />
            <mxPoint x="820" y="560" as="targetPoint" />
          </mxGeometry>
        </mxCell>
        <mxCell id="BLvCOn3kqF9lKBN_COgF-13" value="" style="rounded=0;orthogonalLoop=1;jettySize=auto;html=1;endArrow=oval;endFill=0;sketch=0;sourcePerimeterSpacing=0;targetPerimeterSpacing=0;endSize=15;exitX=1.001;exitY=0.523;exitDx=0;exitDy=0;strokeWidth=5;exitPerimeter=0;" edge="1" parent="1" source="BLvCOn3kqF9lKBN_COgF-1">
          <mxGeometry relative="1" as="geometry">
            <mxPoint x="737" y="530" as="sourcePoint" />
            <mxPoint x="810" y="560" as="targetPoint" />
          </mxGeometry>
        </mxCell>
        <mxCell id="BLvCOn3kqF9lKBN_COgF-15" value="&lt;font style=&quot;font-size: 20px;&quot;&gt;UpdateStateIF&lt;/font&gt;&lt;div&gt;&lt;font style=&quot;font-size: 20px;&quot;&gt;(Chiamate ai metodi del Model per aggiornare lo stato)&lt;/font&gt;&lt;/div&gt;" style="text;html=1;align=center;verticalAlign=middle;whiteSpace=wrap;rounded=0;" vertex="1" parent="1">
          <mxGeometry x="677" y="440" width="300" height="100" as="geometry" />
        </mxCell>
        <mxCell id="BLvCOn3kqF9lKBN_COgF-16" value="" style="rounded=0;orthogonalLoop=1;jettySize=auto;html=1;endArrow=halfCircle;endFill=0;endSize=6;strokeWidth=5;sketch=0;exitX=0.5;exitY=1;exitDx=0;exitDy=0;" edge="1" parent="1" source="BLvCOn3kqF9lKBN_COgF-4">
          <mxGeometry relative="1" as="geometry">
            <mxPoint x="818" y="410" as="sourcePoint" />
            <mxPoint x="427" y="360" as="targetPoint" />
          </mxGeometry>
        </mxCell>
        <mxCell id="BLvCOn3kqF9lKBN_COgF-17" value="" style="rounded=0;orthogonalLoop=1;jettySize=auto;html=1;endArrow=oval;endFill=0;sketch=0;sourcePerimeterSpacing=0;targetPerimeterSpacing=0;endSize=15;exitX=0.5;exitY=0;exitDx=0;exitDy=0;strokeWidth=5;" edge="1" parent="1" source="BLvCOn3kqF9lKBN_COgF-1">
          <mxGeometry relative="1" as="geometry">
            <mxPoint x="417" y="410" as="sourcePoint" />
            <mxPoint x="427" y="370" as="targetPoint" />
          </mxGeometry>
        </mxCell>
        <mxCell id="BLvCOn3kqF9lKBN_COgF-18" value="&lt;font style=&quot;font-size: 20px;&quot;&gt;DataManipulationIF&lt;/font&gt;&lt;div&gt;&lt;font style=&quot;font-size: 20px;&quot;&gt;(Operazioni di CRUD sul Database)&lt;/font&gt;&lt;/div&gt;" style="text;html=1;align=center;verticalAlign=middle;whiteSpace=wrap;rounded=0;" vertex="1" parent="1">
          <mxGeometry x="410" y="310" width="300" height="100" as="geometry" />
        </mxCell>
      </root>
    </mxGraphModel>
  </diagram>
</mxfile>
